<svg width="20" height="20" viewBox="0 0 20 20" fill="none" xmlns="http://www.w3.org/2000/svg">
<path d="M8.17708 7.91853C8.32391 7.50113 8.61373 7.14917 8.99519 6.92498C9.37666 6.70079 9.82516 6.61884 10.2613 6.69364C10.6974 6.76844 11.0929 6.99517 11.3779 7.33367C11.6628 7.67217 11.8188 8.1006 11.8181 8.54306C11.8181 9.79213 9.94452 10.4167 9.94452 10.4167M9.96745 12.9167H9.97578M17.5 10C17.5 14.1421 14.1421 17.5 10 17.5C5.85786 17.5 2.5 14.1421 2.5 10C2.5 5.85786 5.85786 2.5 10 2.5C14.1421 2.5 17.5 5.85786 17.5 10Z" stroke="#8E8E93" stroke-width="1.4" stroke-linecap="round" stroke-linejoin="round"/>
</svg>
