<svg width="20" height="20" viewBox="0 0 20 20" fill="none" xmlns="http://www.w3.org/2000/svg">
<path d="M6.2122 1.66666V2.57575M2.57584 6.21211H1.66675M3.62771 3.62762L2.98489 2.98479M8.79676 3.62762L9.43959 2.98479M3.62771 8.79848L2.98489 9.4413M7.86974 6.38792C7.8758 6.33014 7.87891 6.27148 7.87891 6.2121C7.87891 5.92404 7.80583 5.65305 7.6772 5.41666C7.3948 4.89767 6.84466 4.54543 6.21224 4.54543C5.29176 4.54543 4.54557 5.29162 4.54557 6.2121C4.54557 6.73089 4.78261 7.19432 5.15428 7.49999C5.23567 7.56693 5.32352 7.6263 5.41675 7.67703M8.16675 17.5C5.95761 17.5 4.16675 15.7889 4.16675 13.6781C4.16675 11.9286 5.50008 10.3125 7.50008 9.99999C8.12744 8.56169 9.61222 7.49999 11.344 7.49999C13.5623 7.49999 15.3754 9.15892 15.5001 11.25C16.6773 11.7463 17.5001 12.9645 17.5001 14.2835C17.5001 16.0599 16.0077 17.5 14.1667 17.5L8.16675 17.5Z" stroke="#8E8E93" stroke-width="1.4" stroke-linecap="round" stroke-linejoin="round"/>
</svg>
