<svg width="20" height="20" viewBox="0 0 20 20" fill="none" xmlns="http://www.w3.org/2000/svg">
<path d="M11.6666 4.66666C11.6666 4.19995 11.6666 3.9666 11.7574 3.78834C11.8373 3.63153 11.9648 3.50405 12.1216 3.42416C12.2999 3.33333 12.5332 3.33333 12.9999 3.33333H15.3333C15.8 3.33333 16.0333 3.33333 16.2116 3.42416C16.3684 3.50405 16.4959 3.63153 16.5758 3.78834C16.6666 3.9666 16.6666 4.19995 16.6666 4.66666V6.99999C16.6666 7.46671 16.6666 7.70006 16.5758 7.87832C16.4959 8.03512 16.3684 8.16261 16.2116 8.2425C16.0333 8.33333 15.8 8.33333 15.3333 8.33333H12.9999C12.5332 8.33333 12.2999 8.33333 12.1216 8.2425C11.9648 8.16261 11.8373 8.03512 11.7574 7.87832C11.6666 7.70006 11.6666 7.46671 11.6666 6.99999V4.66666Z" stroke="#5F964B" stroke-width="1.4" stroke-linecap="round" stroke-linejoin="round"/>
<path d="M3.33325 4.66666C3.33325 4.19995 3.33325 3.9666 3.42408 3.78834C3.50397 3.63153 3.63146 3.50405 3.78826 3.42416C3.96652 3.33333 4.19987 3.33333 4.66659 3.33333H6.99992C7.46663 3.33333 7.69998 3.33333 7.87824 3.42416C8.03505 3.50405 8.16253 3.63153 8.24242 3.78834C8.33325 3.9666 8.33325 4.19995 8.33325 4.66666V6.99999C8.33325 7.46671 8.33325 7.70006 8.24242 7.87832C8.16253 8.03512 8.03505 8.16261 7.87824 8.2425C7.69998 8.33333 7.46663 8.33333 6.99992 8.33333H4.66659C4.19987 8.33333 3.96652 8.33333 3.78826 8.2425C3.63146 8.16261 3.50397 8.03512 3.42408 7.87832C3.33325 7.70006 3.33325 7.46671 3.33325 6.99999V4.66666Z" stroke="#5F964B" stroke-width="1.4" stroke-linecap="round" stroke-linejoin="round"/>
<path d="M3.33325 13C3.33325 12.5333 3.33325 12.2999 3.42408 12.1217C3.50397 11.9649 3.63146 11.8374 3.78826 11.7575C3.96652 11.6667 4.19987 11.6667 4.66659 11.6667H6.99992C7.46663 11.6667 7.69998 11.6667 7.87824 11.7575C8.03505 11.8374 8.16253 11.9649 8.24242 12.1217C8.33325 12.2999 8.33325 12.5333 8.33325 13V15.3333C8.33325 15.8 8.33325 16.0334 8.24242 16.2117C8.16253 16.3685 8.03505 16.4959 7.87824 16.5758C7.69998 16.6667 7.46663 16.6667 6.99992 16.6667H4.66659C4.19987 16.6667 3.96652 16.6667 3.78826 16.5758C3.63146 16.4959 3.50397 16.3685 3.42408 16.2117C3.33325 16.0334 3.33325 15.8 3.33325 15.3333V13Z" stroke="#5F964B" stroke-width="1.4" stroke-linecap="round" stroke-linejoin="round"/>
<path d="M11.6666 13C11.6666 12.5333 11.6666 12.2999 11.7574 12.1217C11.8373 11.9649 11.9648 11.8374 12.1216 11.7575C12.2999 11.6667 12.5332 11.6667 12.9999 11.6667H15.3333C15.8 11.6667 16.0333 11.6667 16.2116 11.7575C16.3684 11.8374 16.4959 11.9649 16.5758 12.1217C16.6666 12.2999 16.6666 12.5333 16.6666 13V15.3333C16.6666 15.8 16.6666 16.0334 16.5758 16.2117C16.4959 16.3685 16.3684 16.4959 16.2116 16.5758C16.0333 16.6667 15.8 16.6667 15.3333 16.6667H12.9999C12.5332 16.6667 12.2999 16.6667 12.1216 16.5758C11.9648 16.4959 11.8373 16.3685 11.7574 16.2117C11.6666 16.0334 11.6666 15.8 11.6666 15.3333V13Z" stroke="#5F964B" stroke-width="1.4" stroke-linecap="round" stroke-linejoin="round"/>
</svg>
