<svg width="48" height="48" viewBox="0 0 48 48" fill="none" xmlns="http://www.w3.org/2000/svg">
<path d="M24 48C37.2548 48 48 37.2548 48 24C48 10.7452 37.2548 0 24 0C10.7452 0 0 10.7452 0 24C0 37.2548 10.7452 48 24 48Z" fill="#3A632B"/>
<path fill-rule="evenodd" clip-rule="evenodd" d="M13.5 11.25C31.6395 11.9205 38.634 22.809 35.1225 32.5245C34.128 35.229 33.0705 36.7095 30.8475 38.25C30.9375 37.86 31.0305 37.47 31.1025 37.0695C32.4165 29.49 29.925 20.3685 17.7345 15.33C27.4335 21.102 31.347 31.3725 26.8245 38.0025C19.125 39.213 13.5 32.6385 13.5 25.0635V11.25Z" fill="white"/>
</svg>
