<svg width="24" height="24" viewBox="0 0 24 24" fill="none" xmlns="http://www.w3.org/2000/svg">
<path d="M9.00146 17H5.60587C4.34744 17 3.71823 17 3.58585 16.9023C3.43711 16.7925 3.40077 16.7277 3.38466 16.5436C3.37033 16.3797 3.75598 15.7486 4.52727 14.4866C5.32362 13.1835 5.99982 11.2862 5.99982 8.6C5.99982 7.11479 6.63196 5.69041 7.75718 4.6402C8.88239 3.59 10.4085 3 11.9998 3C13.5911 3 15.1172 3.59 16.2425 4.6402C17.3677 5.69041 17.9998 7.11479 17.9998 8.6C17.9998 11.2862 18.676 13.1835 19.4724 14.4866C20.2437 15.7486 20.6293 16.3797 20.615 16.5436C20.5989 16.7277 20.5625 16.7925 20.4138 16.9023C20.2814 17 19.6522 17 18.3938 17H14.9998M9.00146 17L8.99982 18C8.99982 19.6569 10.343 21 11.9998 21C13.6567 21 14.9998 19.6569 14.9998 18V17M9.00146 17H14.9998" stroke="#5F964B" stroke-width="2" stroke-linecap="round" stroke-linejoin="round"/>
</svg>
